<svg width="1496" height="1172" viewBox="0 0 1496 1172" fill="none" xmlns="http://www.w3.org/2000/svg">
<path fill-rule="evenodd" clip-rule="evenodd" d="M0 585.763V1171.53H219.656H439.312V1016.18V860.842L318.803 721.01C252.531 644.11 192.419 574.249 185.225 565.774C173.473 551.917 185.692 534.38 305.733 392.717L439.312 235.083V117.537V0H219.656H0V585.763ZM1035.57 275.492C826.354 523.223 804.837 551.752 816.671 565.71C823.883 574.221 944.31 714.008 1084.28 876.356L1338.76 1171.53H1420.4C1483.37 1171.53 1500.45 1168.91 1495.04 1160.08C1491.18 1153.8 1375.31 1019.48 1237.56 861.611C1099.81 703.739 984.983 569.069 982.402 562.332C978.786 552.914 1301.09 155.438 1421.69 20.5932L1440.11 0L1353.85 0.375258L1267.6 0.750515L1035.57 275.492Z" fill="#231F20"/>
<path d="M247.43 544.282L713.229 0.101562H1145.01L684.444 544.282L1210.43 1159.1H768.183L247.43 544.282Z" fill="url(#paint0_linear_424_63)"/>
<defs>
<linearGradient id="paint0_linear_424_63" x1="728.93" y1="0.101562" x2="728.93" y2="1159.1" gradientUnits="userSpaceOnUse">
<stop stop-color="#B48A34"/>
<stop offset="0.5" stop-color="#EEDF9A"/>
<stop offset="1" stop-color="#D0B05B"/>
</linearGradient>
</defs>
</svg>
