<svg width="6489" height="1620" viewBox="0 0 6489 1620" fill="none" xmlns="http://www.w3.org/2000/svg">
<path fill-rule="evenodd" clip-rule="evenodd" d="M274.57 759.661V1345.42H494.226H713.882V1190.08V1034.74L593.373 894.908C527.101 818.009 466.989 748.147 459.795 739.672C448.044 725.815 460.262 708.279 580.304 566.616L713.882 408.982V291.435V173.898H494.226H274.57V759.661ZM1310.14 449.39C1100.92 697.122 1079.41 725.65 1091.24 739.608C1098.45 748.12 1218.88 887.907 1358.85 1050.25L1613.33 1345.42H1694.97C1757.94 1345.42 1775.02 1342.81 1769.61 1333.98C1765.75 1327.7 1649.88 1193.38 1512.13 1035.51C1374.38 877.637 1259.55 742.967 1256.97 736.231C1253.36 726.813 1575.66 329.336 1696.26 194.492L1714.68 173.898L1628.42 174.274L1542.17 174.649L1310.14 449.39ZM4308.72 573.801C4306.58 598 4301.45 625.421 4297.3 634.738C4291.32 648.22 4293.22 651.021 4306.63 648.439C4327.38 644.449 4354.28 599.794 4358.18 562.882C4360.7 539.103 4357.84 535.049 4336.83 532.614C4314.01 529.978 4312.36 532.404 4308.72 573.801ZM1937.73 573.068C1924.67 586.138 1931.53 611.189 1949.45 615.875C1966.93 620.442 1967.75 628.359 1967.75 790.835V961.017H1990.63H2013.51V779.083C2013.51 644.275 2010.54 594.687 2002.02 587.621C1985.95 574.286 1945.64 565.16 1937.73 573.068ZM2080.26 582.816C2076.4 592.884 2081.22 602.713 2094.28 611.39C2112.93 623.773 2114.19 631.718 2114.19 737.896V851.187H2137.07H2159.95V723.573C2159.95 602.073 2158.97 595.272 2139.6 581.708C2113.05 563.11 2087.65 563.577 2080.26 582.816ZM2244.61 573.517C2238.32 576.061 2233.17 586.028 2233.17 595.675C2233.17 610.594 2239.92 613.221 2278.26 613.221C2316.09 613.221 2326.42 617.11 2342.33 637.337C2358.09 657.372 2361.3 674.414 2361.3 738.015V814.576H2292.66C2230.12 814.576 2224.02 816.206 2224.02 832.882C2224.02 850.125 2230.12 851.187 2329.27 851.187C2426.13 851.187 2434.52 849.814 2434.52 833.998C2434.52 824.553 2428.34 811.693 2420.79 805.424C2410.67 797.022 2407.03 774.47 2406.93 719.646C2406.85 678.725 2401.64 634.958 2395.36 622.373C2375.19 581.983 2291.13 554.745 2244.61 573.517ZM2491.67 647.543C2499.66 781.746 2542.98 851.187 2618.72 851.187C2706.11 851.187 2747.24 790.368 2753.31 652.119L2757.04 567.458H2733.06C2709.59 567.458 2709.09 568.748 2708.87 629.237C2708.44 752.568 2680.88 810 2622.14 810C2594.8 810 2583.45 804.564 2568.23 784.181C2549.03 758.471 2549.03 758.316 2567.25 748.266C2577.31 742.711 2598.91 724.882 2615.28 708.645C2642.36 681.764 2645.02 674.122 2645.02 623.288C2645.02 569.837 2644.04 567.458 2622.14 567.458C2600.31 567.458 2599.26 569.947 2599.26 621.668C2599.26 667.339 2595.34 680.556 2574.31 705.533L2549.37 735.178L2543.19 713.093C2539.8 700.957 2536.61 663.221 2536.11 629.237C2535.21 568.803 2534.66 567.458 2511.04 567.458H2486.9L2491.67 647.543ZM2853.24 573.764C2838.89 577.516 2837.22 592.151 2837.22 714.567V851.187H2860.1H2882.98V733.183C2882.98 602.265 2884.84 598.439 2943.11 609.367C2996.78 619.435 3006.16 639.452 3009.63 751.442C3012.7 849.905 3013.02 851.187 3034.8 851.187C3056.82 851.187 3056.88 850.949 3056.84 748.221C3056.8 625.293 3043.54 593.085 2986.42 577.224C2951.74 567.586 2883.64 565.819 2853.24 573.764ZM3237.36 573.068C3224.3 586.138 3231.16 611.189 3249.08 615.875C3264.86 620.003 3267.38 628.359 3267.38 676.428C3267.38 729.824 3268.36 732.204 3290.26 732.204C3312.43 732.204 3313.14 730.254 3313.14 669.884C3313.14 634.116 3308.26 601.185 3301.7 592.591C3288.76 575.649 3247.35 563.083 3237.36 573.068ZM3377.21 572.785C3377.21 575.713 3392.4 596.645 3410.97 619.307C3441.82 656.961 3443.63 662.214 3432 680.336C3398.99 731.792 3386.36 766.937 3386.36 807.355C3386.36 848.011 3388.02 851.187 3409.24 851.187C3430.43 851.187 3432.12 847.974 3432.18 807.712C3432.23 760.668 3446.36 699.19 3458.89 691.438C3463.18 688.793 3490.83 723.353 3520.33 768.246C3565.75 837.339 3577.85 849.969 3599.15 850.528C3612.99 850.894 3624.32 848.002 3624.32 844.112C3624.32 840.222 3610 815.29 3592.49 788.702L3560.65 740.358L3584.34 704.572C3601.58 678.515 3608.38 655.615 3609.31 620.405C3610.54 574.075 3609.53 571.915 3585.42 569.142L3560.26 566.241L3560.12 628.633C3559.9 725.339 3552.49 726.675 3487.78 641.648C3439.56 578.304 3427.35 567.458 3404.25 567.458C3389.38 567.458 3377.21 569.856 3377.21 572.785ZM3672.77 582.816C3668.9 592.884 3673.73 602.713 3686.79 611.39C3705.44 623.773 3706.69 631.718 3706.69 737.896V851.187H3729.57H3752.45V727.627C3752.45 616.268 3750.64 602.256 3734.15 585.763C3711.85 563.458 3680.77 561.966 3672.77 582.816ZM3823.39 573.764C3814.58 576.07 3807.37 585.891 3807.37 595.584C3807.37 610.832 3814.1 613.221 3857.04 613.221C3899.81 613.221 3909.35 616.58 3925.68 637.337C3942.1 658.214 3944.65 674.204 3944.65 756.321V851.187H3967.53H3990.42L3990.38 748.221C3990.35 662.388 3987.39 640.394 3972.55 616.067C3948.82 577.141 3882.47 558.324 3823.39 573.764ZM4436.59 573.48C4417.71 576.738 4411.42 583.072 4411.42 598.833C4411.42 616.644 4415.13 619.124 4435.8 615.17C4457.07 611.106 4459.18 612.726 4452.3 627.883C4447.97 637.438 4442.15 680.263 4439.36 723.051C4434.84 792.473 4432.09 801.818 4413.71 809.881C4402.38 814.851 4393.12 826.182 4393.12 835.051C4393.12 847.343 4400.63 851.187 4424.63 851.187C4473.12 851.187 4484.64 827.216 4484.64 726.337C4484.64 619.179 4487.07 613.221 4530.71 613.221C4557.59 613.221 4570.08 618.804 4584.65 637.337C4601.07 658.214 4603.62 674.204 4603.62 756.321V851.187H4626.5H4649.38V751.104C4649.38 639.076 4642.49 611.967 4608.32 589.579C4584.42 573.919 4486.98 564.785 4436.59 573.48ZM4706.98 582.816C4703.12 592.884 4707.94 602.713 4721 611.39C4739.65 623.773 4740.91 631.718 4740.91 737.896V851.187H4763.79H4786.67V723.573C4786.67 602.073 4785.69 595.272 4766.32 581.708C4739.77 563.11 4714.36 563.577 4706.98 582.816ZM4862.12 647.543C4870.11 781.746 4913.44 851.187 4989.17 851.187C5076.57 851.187 5117.69 790.368 5123.77 652.119L5127.49 567.458H5103.51C5080.05 567.458 5079.54 568.748 5079.32 629.237C5078.89 752.568 5051.33 810 4992.6 810C4965.26 810 4953.9 804.564 4938.68 784.181C4919.49 758.471 4919.49 758.316 4937.7 748.266C4947.76 742.711 4969.37 724.882 4985.73 708.645C5012.81 681.764 5015.48 674.122 5015.48 623.288C5015.48 569.837 5014.5 567.458 4992.6 567.458C4970.77 567.458 4969.71 569.947 4969.71 621.668C4969.71 667.339 4965.79 680.556 4944.76 705.533L4919.83 735.178L4913.65 713.093C4910.25 700.957 4907.07 663.221 4906.56 629.237C4905.67 568.803 4905.12 567.458 4881.5 567.458H4857.35L4862.12 647.543ZM5182.9 582.816C5179.04 592.884 5183.86 602.713 5196.92 611.39C5215.57 623.773 5216.83 631.718 5216.83 737.896V851.187H5239.71H5262.59V723.573C5262.59 602.073 5261.61 595.272 5242.24 581.708C5215.69 563.11 5190.29 563.577 5182.9 582.816ZM5452.22 573.068C5439.16 586.138 5446.02 611.189 5463.94 615.875C5481.42 620.442 5482.24 628.359 5482.24 790.835V961.017H5505.13H5528.01V779.083C5528.01 644.275 5525.03 594.687 5516.51 587.621C5500.45 574.286 5460.13 565.16 5452.22 573.068ZM5607.65 573.242C5604.12 576.775 5601.22 587.209 5601.22 596.444C5601.22 608.177 5608.01 613.221 5623.79 613.221C5656.6 613.221 5665.29 638.015 5665.29 731.599V814.576H5628.68C5598.18 814.576 5592.07 817.624 5592.07 832.882C5592.07 849.31 5598.18 851.187 5651.56 851.187H5711.05V737.292C5711.05 632.011 5709.5 621.677 5690.46 600.681C5669.78 577.864 5619.63 561.252 5607.65 573.242ZM5772.56 573.068C5759.5 586.138 5766.35 611.189 5784.27 615.875C5800.05 620.003 5802.58 628.359 5802.58 676.428C5802.58 729.824 5803.56 732.204 5825.46 732.204C5847.62 732.204 5848.34 730.254 5848.34 669.884C5848.34 634.116 5843.46 601.185 5836.9 592.591C5823.96 575.649 5782.54 563.083 5772.56 573.068ZM5921.56 590.339V613.221H6013.08H6104.6L6104.4 661.271C6104.16 718.813 6078.7 779.678 6045.88 801.186C6020.36 817.908 6013.65 851.187 6035.8 851.187C6043.26 851.187 6067.55 833.687 6089.76 812.288C6137.21 766.59 6150.24 728.186 6150.31 633.814L6150.36 567.458H6035.96H5921.56V590.339ZM5930.71 823.729V961.017H5953.59H5976.47V823.729V686.441H5953.59H5930.71V823.729ZM4185.13 820.974C4180.04 845.146 4172.67 872.539 4168.76 881.857C4163.18 895.119 4165.2 898.103 4178.02 895.586C4202.03 890.872 4227.66 851.296 4230.49 814.586C4232.53 788.025 4229.66 782.085 4213.67 779.797C4197.35 777.463 4192.96 783.796 4185.13 820.974ZM5154.09 1073.14C5125.66 1132.58 5113.18 1194.95 5118.8 1249.44C5124.64 1306.09 5167.76 1409.49 5185.53 1409.49C5194.24 1409.49 5192.03 1397.68 5177.42 1366.02C5160.6 1329.6 5157.34 1306.2 5157.34 1221.86C5157.34 1137.53 5160.6 1114.13 5177.42 1077.71C5192.55 1044.92 5194.45 1034.24 5185.1 1034.24C5178.28 1034.24 5164.33 1051.74 5154.09 1073.14ZM6111.79 1100.59C6130.55 1156.49 6133.39 1179.21 6129.79 1244.75C6126.97 1296.21 6119 1337.26 6106.24 1366.02C6091.79 1398.57 6090 1409.49 6099.1 1409.49C6116.74 1409.49 6157.96 1311.52 6164.78 1253.4C6171.01 1200.26 6161.19 1150.53 6130.07 1077.71C6099.76 1006.77 6086.06 1023.91 6111.79 1100.59ZM3451.08 1086.88C3405.61 1110.07 3384 1144.65 3379.26 1201.84C3369.47 1319.89 3454.56 1392.85 3553.68 1351.42C3590.42 1336.06 3604.32 1319.62 3611.68 1282.77C3616.24 1259.97 3614.37 1253.9 3602.76 1253.9C3594.68 1253.9 3585.46 1264.26 3582.29 1276.93C3569.3 1328.64 3495.13 1353.53 3453.79 1320.05C3424.96 1296.7 3413.82 1269.34 3413.82 1221.86C3413.82 1198.55 3418.42 1170.48 3424.04 1159.48C3453.48 1101.9 3517.27 1090.52 3561.67 1134.92C3585.92 1159.17 3615.17 1171.43 3615.17 1157.34C3615.17 1136.5 3581.07 1094.6 3555.37 1083.85C3514.38 1066.73 3489.15 1067.46 3451.08 1086.88ZM4210.72 1086.88C4165.25 1110.07 4143.64 1144.65 4138.9 1201.84C4129.06 1320.54 4214.17 1392.85 4314.42 1350.97C4349.79 1336.19 4374.81 1304.6 4374.81 1274.74C4374.81 1246.22 4349.2 1247.92 4341.93 1276.93C4328.94 1328.64 4254.77 1353.53 4213.43 1320.05C4184.6 1296.7 4173.46 1269.34 4173.46 1221.86C4173.46 1198.55 4178.07 1170.48 4183.69 1159.48C4213.13 1101.9 4276.91 1090.52 4321.31 1134.92C4345.56 1159.17 4374.81 1171.43 4374.81 1157.34C4374.81 1136.5 4340.71 1094.6 4315.01 1083.85C4274.03 1066.73 4248.79 1067.46 4210.72 1086.88ZM4557.86 1216.38C4557.86 1357.62 4558.62 1363.73 4576.16 1363.73C4592.56 1363.73 4594.47 1357.62 4594.47 1305.27V1246.81L4658.58 1243.19C4740.27 1238.58 4760.74 1221.46 4760.74 1157.8C4760.74 1089.78 4741.54 1076.18 4639.98 1072.23L4557.86 1069.03V1216.38ZM5518.85 1077.31C5485.68 1089.44 5463.94 1120.03 5463.94 1154.6C5463.94 1195.72 5479.13 1208.04 5557.19 1230.17C5635.92 1252.49 5656.3 1281.19 5619.53 1317.97C5592.55 1344.95 5533.72 1342.82 5504.71 1313.8C5492.36 1301.45 5482.24 1287.03 5482.24 1281.77C5482.24 1276.51 5476.07 1272.2 5468.52 1272.2C5450.87 1272.2 5450.89 1299.17 5468.54 1324.38C5500.54 1370.05 5607.02 1374.24 5647.27 1331.39C5672.44 1304.59 5674.85 1261.32 5652.52 1236.66C5643.83 1227.04 5617.4 1214.51 5593.79 1208.79C5499.51 1185.95 5479.58 1168.04 5505.13 1129.05C5516.04 1112.4 5527.54 1107.46 5555.4 1107.46C5584.92 1107.46 5595.23 1112.47 5611.82 1134.92C5633.73 1164.54 5656.14 1171.18 5656.14 1148.04C5656.14 1096.9 5576.92 1056.08 5518.85 1077.31ZM5839.19 1216.4C5839.19 1357.62 5839.95 1363.73 5857.49 1363.73C5873.92 1363.73 5875.79 1357.62 5875.79 1304.24V1244.75H5934.96C6000.47 1244.75 6013.08 1254.87 6013.08 1307.46C6013.08 1346.56 6021.69 1363.73 6041.29 1363.73C6054.8 1363.73 6057.55 1358.45 6054.42 1338.56C6052.24 1324.72 6048.06 1298.06 6045.13 1279.32C6042.2 1260.58 6033.23 1241.57 6025.21 1237.08C6012.28 1229.85 6012.85 1226.67 6030.15 1209.37C6057.15 1182.37 6057.31 1117.21 6030.44 1092.86C6015.06 1078.92 5993.95 1074.79 5925.19 1072.25L5839.19 1069.08V1216.4ZM1986.06 1221.86C1986.06 1357.62 1986.84 1363.73 2004.36 1363.73C2020.38 1363.73 2022.66 1357.62 2022.66 1314.98C2022.66 1275.86 2026.85 1262.31 2043.84 1246.34C2055.49 1235.39 2067.73 1226.44 2071.03 1226.44C2074.32 1226.44 2097.86 1257.33 2123.34 1295.08C2160.74 1350.5 2174.16 1363.73 2193.04 1363.73H2216.42L2184.92 1320.25C2167.59 1296.34 2140.35 1258.48 2124.37 1236.12L2095.33 1195.47L2152.55 1137.73C2203.86 1085.95 2207.45 1080 2187.34 1080C2171.63 1080 2143.66 1101.14 2093.8 1150.72L2022.66 1221.43V1150.72C2022.66 1086.1 2021.08 1080 2004.36 1080C1986.84 1080 1986.06 1086.1 1986.06 1221.86ZM3176.89 1097.27C3154.08 1120.08 3152.71 1139.14 3171.29 1174.77C3184.34 1199.79 3183.76 1201.96 3157.51 1226.49C3130.98 1251.26 3125.88 1265.63 3129.9 1304.24C3135.16 1354.88 3199.4 1376.63 3258.02 1347.63C3288.64 1332.48 3296.29 1331.58 3304.99 1342.06C3310.71 1348.94 3323.6 1354.58 3333.65 1354.58C3351.02 1354.58 3350.8 1353.1 3329.29 1324.83C3313.08 1303.52 3308.69 1289.89 3313.83 1276.78C3325.18 1247.83 3323.4 1226.44 3309.64 1226.44C3302.67 1226.44 3294.59 1235.55 3291.68 1246.68L3286.39 1266.9L3263.16 1245.08C3234.42 1218.08 3234.41 1214.49 3262.81 1186.09C3304.32 1144.57 3287.51 1092.75 3229.48 1083.34C3203.21 1079.08 3192.17 1082 3176.89 1097.27ZM4887.06 1214.05C4859.53 1287.78 4835.63 1351.62 4833.96 1355.91C4832.27 1360.21 4838.93 1363.73 4848.73 1363.73C4861.44 1363.73 4871.1 1351.82 4882.43 1322.15L4898.32 1280.56L4958.46 1283.25L5018.6 1285.93L5031.53 1324.83C5040.75 1352.56 5049.5 1363.73 5062 1363.73C5071.65 1363.73 5079.54 1361.78 5079.54 1359.39C5079.54 1357 5056.39 1293.16 5028.1 1217.53C4983.61 1098.61 4973.97 1080 4956.88 1080C4939.81 1080 4930.3 1098.26 4887.06 1214.05ZM5244.28 1221.86C5244.28 1341.86 5246.4 1363.73 5258.01 1363.73C5269.63 1363.73 5271.74 1341.86 5271.74 1221.86C5271.74 1101.87 5269.63 1080 5258.01 1080C5246.4 1080 5244.28 1101.87 5244.28 1221.86ZM3252.41 1127.64C3260.12 1139.94 3257.46 1148.29 3239.85 1167.02C3219.06 1189.16 3216.7 1189.7 3205.84 1174.84C3193.14 1157.48 3190.28 1123.54 3200.65 1113.17C3211.39 1102.43 3241.97 1110.98 3252.41 1127.64ZM4719.55 1131.39C4733.61 1152.85 4733.84 1157.83 4721.75 1179.44C4709.75 1200.89 4701.94 1203.86 4651.36 1206.29L4594.47 1209.01V1158.24V1107.46H4649.17C4698.06 1107.46 4705.54 1110 4719.55 1131.39ZM6010.03 1131.39C6024.09 1152.85 6024.32 1157.83 6012.22 1179.44C6000.03 1201.23 5992.82 1203.82 5937.26 1206.27L5875.79 1208.97V1158.22V1107.46H5935.07C5988.9 1107.46 5995.79 1109.65 6010.03 1131.39ZM4981.68 1183.09L5004.05 1244.75H4959.43C4934.88 1244.75 4914.8 1241.42 4914.8 1237.37C4914.8 1225.17 4953.2 1115.36 4956.37 1118.51C4957.98 1120.12 4969.37 1149.19 4981.68 1183.09ZM2292.66 1163.38C2256.92 1183.94 2242.73 1211.14 2242.52 1259.53C2242.18 1338.43 2301.56 1383.11 2369.42 1355.01C2390.77 1346.16 2416.21 1313.35 2416.21 1294.65C2416.21 1281.21 2388.53 1294.07 2375.87 1313.39C2357.19 1341.9 2314.26 1344.14 2288.08 1317.97C2251.65 1281.53 2263.08 1272.2 2344.2 1272.2H2418.62L2413.53 1234.25C2410.73 1213.38 2400.68 1188.53 2391.19 1179.04C2369.82 1157.68 2317.14 1149.3 2292.66 1163.38ZM2535.2 1159.57C2527.64 1162.27 2516.32 1170.97 2510.03 1178.9C2499.69 1191.93 2498.59 1191.83 2498.59 1177.85C2498.59 1169.34 2492.41 1162.37 2484.86 1162.37C2473.49 1162.37 2471.13 1179.66 2471.13 1263.05C2471.13 1346.44 2473.49 1363.73 2484.86 1363.73C2495.91 1363.73 2498.59 1349.49 2498.59 1290.51C2498.59 1210.06 2514.01 1180.68 2556.25 1180.68C2592.27 1180.68 2599.26 1197.34 2599.26 1283.19C2599.26 1359.13 2600.37 1363.73 2618.66 1363.73C2637.34 1363.73 2637.91 1360.5 2634.2 1275.59C2630.76 1197.05 2628.05 1185.57 2609.21 1170.34C2588.51 1153.57 2562.55 1149.8 2535.2 1159.57ZM2721.02 1163.67C2709.95 1169.29 2696.78 1185.71 2691.75 1200.16C2683.98 1222.41 2684.98 1226.44 2698.21 1226.44C2706.81 1226.44 2718.98 1218.2 2725.27 1208.14C2745.46 1175.8 2814.97 1188.06 2808.29 1222.77C2805.94 1234.98 2791.41 1242.81 2756.83 1250.48C2697.56 1263.65 2681.63 1276.13 2681.63 1309.42C2681.63 1356.53 2734.03 1376.86 2785.81 1349.85C2809.7 1337.4 2813.25 1337.54 2823.38 1351.4C2836.43 1369.23 2864.68 1362.21 2864.68 1341.13C2864.68 1333.43 2861 1327.12 2856.5 1327.12C2851.99 1327.12 2846.82 1294.35 2845 1254.31C2843.19 1214.26 2836.93 1176.72 2831.11 1170.9C2816.27 1156.07 2745.17 1151.4 2721.02 1163.67ZM2974.51 1159.57C2966.96 1162.27 2955.63 1170.97 2949.34 1178.9C2939.01 1191.93 2937.9 1191.83 2937.9 1177.85C2937.9 1169.34 2931.72 1162.37 2924.17 1162.37C2912.8 1162.37 2910.44 1179.66 2910.44 1263.05C2910.44 1346.44 2912.8 1363.73 2924.17 1363.73C2935.23 1363.73 2937.9 1349.49 2937.9 1290.51C2937.9 1210.06 2953.32 1180.68 2995.56 1180.68C3031.58 1180.68 3038.57 1197.34 3038.57 1283.19C3038.57 1359.13 3039.68 1363.73 3057.97 1363.73C3076.66 1363.73 3077.22 1360.5 3073.51 1275.59C3070.08 1197.05 3067.36 1185.57 3048.52 1170.34C3027.82 1153.57 3001.86 1149.8 2974.51 1159.57ZM3719.11 1161.82C3666.32 1184.39 3650.53 1285.05 3692.17 1333.47C3710.96 1355.32 3721.18 1359.15 3760.56 1359.15C3795.6 1359.15 3811.61 1354.41 3826.35 1339.67C3863.94 1302.07 3864.65 1215.59 3827.67 1178.61C3807.6 1158.54 3748.27 1149.37 3719.11 1161.82ZM2369.79 1204.8C2380.22 1218.06 2388.76 1232.47 2388.76 1236.83C2388.76 1241.19 2361.99 1244.75 2329.27 1244.75C2296.55 1244.75 2269.78 1241.19 2269.78 1236.83C2269.78 1217.97 2309.29 1180.68 2329.27 1180.68C2341.65 1180.68 2358.89 1190.94 2369.79 1204.8ZM3806.7 1204.8C3845.01 1253.5 3817.1 1336.27 3762.36 1336.27C3725.69 1336.27 3702.12 1305.83 3702.12 1258.47C3702.12 1186.08 3766.14 1153.22 3806.7 1204.8ZM3240.23 1263.44C3268.49 1299.11 3268.96 1301.06 3253.31 1318.35C3222.64 1352.23 3157.55 1331.19 3157.55 1287.39C3157.55 1269.38 3190.38 1226.44 3204.14 1226.44C3207.87 1226.44 3224.11 1243.09 3240.23 1263.44ZM2795.08 1315.23C2756.03 1343.78 2689.06 1315.77 2720.69 1284.13C2728.73 1276.1 2751.03 1266.93 2770.25 1263.76C2802.38 1258.46 2805.44 1259.81 2808.26 1280.66C2810.15 1294.59 2805.06 1307.92 2795.08 1315.23ZM3917.2 1340.85C3917.2 1357.62 3922.07 1363.73 3935.5 1363.73C3948.93 1363.73 3953.81 1357.62 3953.81 1340.85C3953.81 1324.07 3948.93 1317.97 3935.5 1317.97C3922.07 1317.97 3917.2 1324.07 3917.2 1340.85ZM4448.03 1340.85C4448.03 1357.62 4452.91 1363.73 4466.34 1363.73C4479.76 1363.73 4484.64 1357.62 4484.64 1340.85C4484.64 1324.07 4479.76 1317.97 4466.34 1317.97C4452.91 1317.97 4448.03 1324.07 4448.03 1340.85ZM4759.21 1340.85C4759.21 1357.62 4764.09 1363.73 4777.52 1363.73C4790.94 1363.73 4795.82 1357.62 4795.82 1340.85C4795.82 1324.07 4790.94 1317.97 4777.52 1317.97C4764.09 1317.97 4759.21 1324.07 4759.21 1340.85ZM5354.11 1340.85C5354.11 1357.62 5358.99 1363.73 5372.42 1363.73C5385.84 1363.73 5390.72 1357.62 5390.72 1340.85C5390.72 1324.07 5385.84 1317.97 5372.42 1317.97C5358.99 1317.97 5354.11 1324.07 5354.11 1340.85ZM5738.51 1340.85C5738.51 1357.62 5743.39 1363.73 5756.81 1363.73C5770.24 1363.73 5775.12 1357.62 5775.12 1340.85C5775.12 1324.07 5770.24 1317.97 5756.81 1317.97C5743.39 1317.97 5738.51 1324.07 5738.51 1340.85Z" fill="#040F33"/>
<path d="M522 718.181L987.799 174H1419.58L959.014 718.181L1485 1333H1042.75L522 718.181Z" fill="#97A9CA"/>
</svg>
