<svg width="5892" height="1236" viewBox="0 0 5892 1236" fill="none" xmlns="http://www.w3.org/2000/svg">
<path fill-rule="evenodd" clip-rule="evenodd" d="M0 585.763V1171.53H219.656H439.312V1016.18V860.842L318.803 721.01C252.531 644.11 192.419 574.249 185.225 565.774C173.473 551.917 185.692 534.38 305.733 392.717L439.312 235.083V117.537V0H219.656H0V585.763ZM1035.57 275.492C826.354 523.223 804.837 551.752 816.671 565.71C823.883 574.221 944.31 714.008 1084.28 876.356L1338.76 1171.53H1420.4C1483.37 1171.53 1500.45 1168.91 1495.04 1160.08C1491.18 1153.8 1375.31 1019.48 1237.56 861.611C1099.81 703.739 984.983 569.069 982.402 562.332C978.787 552.914 1301.09 155.438 1421.69 20.5932L1440.11 0L1353.85 0.375258L1267.6 0.750515L1035.57 275.492ZM4034.14 399.902C4032.01 424.101 4026.88 451.522 4022.73 460.84C4016.75 474.321 4018.65 477.122 4032.06 474.541C4052.81 470.551 4079.71 425.895 4083.61 388.983C4086.13 365.205 4083.27 361.15 4062.26 358.716C4039.44 356.08 4037.79 358.505 4034.14 399.902ZM1663.16 399.17C1650.1 412.24 1656.96 437.29 1674.88 441.976C1692.36 446.543 1693.18 454.46 1693.18 616.936V787.119H1716.06H1738.94V605.184C1738.94 470.377 1735.97 420.788 1727.45 413.722C1711.38 400.387 1671.07 391.262 1663.16 399.17ZM1805.69 408.917C1801.83 418.985 1806.65 428.815 1819.71 437.492C1838.36 449.875 1839.62 457.819 1839.62 563.998V677.288H1862.5H1885.38V549.674C1885.38 428.174 1884.4 421.374 1865.03 407.81C1838.48 389.212 1813.08 389.679 1805.69 408.917ZM1970.04 399.618C1963.75 402.163 1958.6 412.13 1958.6 421.777C1958.6 436.695 1965.35 439.322 2003.69 439.322C2041.52 439.322 2051.85 443.212 2067.76 463.439C2083.52 483.474 2086.73 500.516 2086.73 564.117V640.678H2018.09C1955.55 640.678 1949.45 642.307 1949.45 658.983C1949.45 676.227 1955.55 677.288 2054.7 677.288C2151.56 677.288 2159.95 675.915 2159.95 660.1C2159.95 650.654 2153.77 637.795 2146.22 631.525C2136.1 623.123 2132.46 600.572 2132.35 545.748C2132.28 504.827 2127.07 461.059 2120.79 448.475C2100.61 408.084 2016.56 380.846 1970.04 399.618ZM2217.1 473.644C2225.09 607.848 2268.41 677.288 2344.15 677.288C2431.54 677.288 2472.67 616.47 2478.74 478.22L2482.47 393.559H2458.49C2435.02 393.559 2434.52 394.85 2434.3 455.339C2433.87 578.67 2406.31 636.102 2347.57 636.102C2320.23 636.102 2308.88 630.665 2293.66 610.282C2274.46 584.573 2274.46 584.417 2292.68 574.368C2302.73 568.812 2324.34 550.983 2340.71 534.747C2367.79 507.865 2370.45 500.223 2370.45 449.39C2370.45 395.939 2369.47 393.559 2347.57 393.559C2325.74 393.559 2324.69 396.049 2324.69 447.77C2324.69 493.441 2320.76 506.657 2299.74 531.635L2274.8 561.28L2268.62 539.195C2265.23 527.058 2262.04 489.322 2261.54 455.339C2260.64 394.905 2260.09 393.559 2236.47 393.559H2212.33L2217.1 473.644ZM2578.67 399.865C2564.32 403.618 2562.65 418.253 2562.65 540.668V677.288H2585.53H2608.41V559.284C2608.41 428.366 2610.27 424.541 2668.53 435.469C2722.21 445.537 2731.59 465.553 2735.06 577.544C2738.13 676.007 2738.45 677.288 2760.23 677.288C2782.25 677.288 2782.31 677.05 2782.27 574.322C2782.23 451.394 2768.97 419.186 2711.85 403.325C2677.17 393.688 2609.07 391.921 2578.67 399.865ZM2962.79 399.17C2949.73 412.24 2956.59 437.29 2974.51 441.976C2990.29 446.104 2992.81 454.46 2992.81 502.53C2992.81 555.925 2993.79 558.305 3015.69 558.305C3037.86 558.305 3038.57 556.356 3038.57 495.985C3038.57 460.217 3033.69 427.286 3027.13 418.692C3014.19 401.751 2972.78 389.184 2962.79 399.17ZM3102.64 398.886C3102.64 401.815 3117.83 422.747 3136.4 445.409C3167.25 483.062 3169.06 488.316 3157.43 506.438C3124.42 557.893 3111.79 593.039 3111.79 633.457C3111.79 674.112 3113.45 677.288 3134.67 677.288C3155.86 677.288 3157.55 674.076 3157.61 633.814C3157.66 586.77 3171.78 525.292 3184.32 517.54C3188.61 514.895 3216.26 549.455 3245.76 594.348C3291.18 663.44 3303.28 676.071 3324.58 676.629C3338.42 676.995 3349.75 674.103 3349.75 670.213C3349.75 666.323 3335.43 641.392 3317.92 614.804L3286.08 566.46L3309.77 530.674C3327.01 504.616 3333.81 481.717 3334.74 446.507C3335.97 400.177 3334.96 398.017 3310.85 395.243L3285.69 392.342L3285.55 454.735C3285.33 551.441 3277.92 552.777 3213.21 467.75C3164.99 404.405 3152.78 393.559 3129.68 393.559C3114.81 393.559 3102.64 395.957 3102.64 398.886ZM3398.2 408.917C3394.33 418.985 3399.16 428.815 3412.22 437.492C3430.87 449.875 3432.12 457.819 3432.12 563.998V677.288H3455H3477.88V553.729C3477.88 442.37 3476.07 428.357 3459.58 411.864C3437.28 389.56 3406.2 388.068 3398.2 408.917ZM3548.81 399.865C3540.01 402.172 3532.8 411.993 3532.8 421.685C3532.8 436.933 3539.53 439.322 3582.47 439.322C3625.24 439.322 3634.78 442.681 3651.11 463.439C3667.53 484.316 3670.08 500.305 3670.08 582.422V677.288H3692.96H3715.84L3715.81 574.322C3715.78 488.49 3712.82 466.496 3697.98 442.168C3674.25 403.243 3607.9 384.425 3548.81 399.865ZM4162.02 399.582C4143.14 402.84 4136.85 409.174 4136.85 424.934C4136.85 442.745 4140.56 445.225 4161.23 441.272C4182.5 437.208 4184.61 438.828 4177.73 453.984C4173.4 463.54 4167.58 506.364 4164.79 549.153C4160.27 618.575 4157.52 627.919 4139.14 635.983C4127.81 640.953 4118.55 652.283 4118.55 661.152C4118.55 673.444 4126.06 677.288 4150.06 677.288C4198.55 677.288 4210.07 653.318 4210.07 552.438C4210.07 445.28 4212.5 439.322 4256.14 439.322C4283.02 439.322 4295.51 444.905 4310.08 463.439C4326.5 484.316 4329.05 500.305 4329.05 582.422V677.288H4351.93H4374.81V577.205C4374.81 465.178 4367.92 438.068 4333.75 415.681C4309.85 400.021 4212.41 390.887 4162.02 399.582ZM4432.41 408.917C4428.55 418.985 4433.37 428.815 4446.43 437.492C4465.08 449.875 4466.34 457.819 4466.34 563.998V677.288H4489.22H4512.1V549.674C4512.1 428.174 4511.12 421.374 4491.75 407.81C4465.2 389.212 4439.79 389.679 4432.41 408.917ZM4587.55 473.644C4595.54 607.848 4638.87 677.288 4714.6 677.288C4802 677.288 4843.12 616.47 4849.2 478.22L4852.92 393.559H4828.94C4805.48 393.559 4804.97 394.85 4804.75 455.339C4804.32 578.67 4776.76 636.102 4718.02 636.102C4690.69 636.102 4679.33 630.665 4664.11 610.282C4644.92 584.573 4644.92 584.417 4663.13 574.368C4673.19 568.812 4694.8 550.983 4711.16 534.747C4738.24 507.865 4740.91 500.223 4740.91 449.39C4740.91 395.939 4739.93 393.559 4718.02 393.559C4696.2 393.559 4695.14 396.049 4695.14 447.77C4695.14 493.441 4691.22 506.657 4670.19 531.635L4645.25 561.28L4639.08 539.195C4635.68 527.058 4632.5 489.322 4631.99 455.339C4631.1 394.905 4630.55 393.559 4606.92 393.559H4582.78L4587.55 473.644ZM4908.33 408.917C4904.47 418.985 4909.29 428.815 4922.35 437.492C4941 449.875 4942.26 457.819 4942.26 563.998V677.288H4965.14H4988.02V549.674C4988.02 428.174 4987.04 421.374 4967.67 407.81C4941.12 389.212 4915.72 389.679 4908.33 408.917ZM5177.65 399.17C5164.59 412.24 5171.45 437.29 5189.37 441.976C5206.85 446.543 5207.67 454.46 5207.67 616.936V787.119H5230.56H5253.44V605.184C5253.44 470.377 5250.46 420.788 5241.94 413.722C5225.88 400.387 5185.56 391.262 5177.65 399.17ZM5333.08 399.344C5329.55 402.877 5326.65 413.311 5326.65 422.545C5326.65 434.279 5333.44 439.322 5349.22 439.322C5382.03 439.322 5390.72 464.116 5390.72 557.701V640.678H5354.11C5323.61 640.678 5317.5 643.726 5317.5 658.983C5317.5 675.412 5323.61 677.288 5376.99 677.288H5436.48V563.394C5436.48 458.112 5434.93 447.779 5415.89 426.783C5395.21 403.966 5345.06 387.354 5333.08 399.344ZM5497.99 399.17C5484.93 412.24 5491.78 437.29 5509.7 441.976C5525.48 446.104 5528.01 454.46 5528.01 502.53C5528.01 555.925 5528.99 558.305 5550.89 558.305C5573.05 558.305 5573.77 556.356 5573.77 495.985C5573.77 460.217 5568.89 427.286 5562.33 418.692C5549.39 401.751 5507.97 389.184 5497.99 399.17ZM5646.99 416.441V439.322H5738.51H5830.03L5829.83 487.373C5829.59 544.915 5804.13 605.779 5771.31 627.288C5745.79 644.01 5739.08 677.288 5761.23 677.288C5768.69 677.288 5792.97 659.789 5815.19 638.39C5862.64 592.691 5875.67 554.287 5875.74 459.915L5875.79 393.559H5761.39H5646.99V416.441ZM5656.14 649.831V787.119H5679.02H5701.9V649.831V512.542H5679.02H5656.14V649.831ZM3910.56 647.076C3905.47 671.247 3898.1 698.641 3894.19 707.958C3888.61 721.22 3890.63 724.204 3903.45 721.687C3927.46 716.974 3953.09 677.398 3955.92 640.687C3957.96 614.126 3955.09 608.186 3939.1 605.898C3922.78 603.564 3918.39 609.898 3910.56 647.076ZM4879.52 899.237C4851.09 958.683 4838.61 1021.05 4844.23 1075.54C4850.07 1132.19 4893.19 1235.59 4910.96 1235.59C4919.67 1235.59 4917.46 1223.78 4902.85 1192.12C4886.02 1155.7 4882.77 1132.3 4882.77 1047.97C4882.77 963.635 4886.02 940.232 4902.85 903.814C4917.98 871.02 4919.88 860.339 4910.53 860.339C4903.71 860.339 4889.76 877.839 4879.52 899.237ZM5837.22 926.695C5855.98 982.59 5858.82 1005.32 5855.22 1070.85C5852.4 1122.31 5844.43 1163.36 5831.67 1192.12C5817.22 1224.67 5815.43 1235.59 5824.53 1235.59C5842.17 1235.59 5883.39 1137.62 5890.21 1079.51C5896.44 1026.37 5886.62 976.631 5855.5 903.814C5825.19 832.872 5811.49 850.015 5837.22 926.695ZM3176.51 912.984C3131.04 936.168 3109.43 970.755 3104.69 1027.94C3094.9 1145.99 3179.99 1218.95 3279.11 1177.52C3315.85 1162.16 3329.74 1145.72 3337.11 1108.88C3341.67 1086.07 3339.8 1080 3328.19 1080C3320.11 1080 3310.89 1090.36 3307.72 1103.03C3294.73 1154.74 3220.56 1179.63 3179.22 1146.15C3150.39 1122.8 3139.25 1095.44 3139.25 1047.97C3139.25 1024.65 3143.85 996.584 3149.47 985.582C3178.91 928.004 3242.7 916.618 3287.09 961.017C3311.35 985.271 3340.6 997.536 3340.6 983.441C3340.6 962.6 3306.5 920.7 3280.8 909.955C3239.81 892.831 3214.58 893.563 3176.51 912.984ZM3936.15 912.984C3890.68 936.168 3869.07 970.755 3864.33 1027.94C3854.49 1146.64 3939.6 1218.95 4039.85 1177.07C4075.22 1162.29 4100.24 1130.71 4100.24 1100.84C4100.24 1072.32 4074.63 1074.02 4067.36 1103.03C4054.37 1154.74 3980.2 1179.63 3938.86 1146.15C3910.03 1122.8 3898.89 1095.44 3898.89 1047.97C3898.89 1024.65 3903.5 996.584 3909.11 985.582C3938.56 928.004 4002.34 916.618 4046.74 961.017C4070.99 985.271 4100.24 997.536 4100.24 983.441C4100.24 962.6 4066.14 920.7 4040.44 909.955C3999.46 892.831 3974.22 893.563 3936.15 912.984ZM4283.29 1042.48C4283.29 1183.73 4284.05 1189.83 4301.59 1189.83C4317.99 1189.83 4319.9 1183.73 4319.9 1131.37V1072.92L4384.01 1069.29C4465.7 1064.68 4486.17 1047.56 4486.17 983.898C4486.17 915.886 4466.97 902.285 4365.41 898.331L4283.29 895.128V1042.48ZM5244.28 903.411C5211.11 915.538 5189.37 946.135 5189.37 980.704C5189.37 1021.83 5204.56 1034.14 5282.62 1056.27C5361.35 1078.59 5381.73 1107.29 5344.96 1144.07C5317.98 1171.05 5259.15 1168.92 5230.14 1139.9C5217.79 1127.55 5207.67 1113.13 5207.67 1107.87C5207.67 1102.61 5201.5 1098.31 5193.95 1098.31C5176.3 1098.31 5176.32 1125.27 5193.97 1150.48C5225.97 1196.16 5332.45 1200.34 5372.7 1157.49C5397.87 1130.7 5400.28 1087.42 5377.95 1062.76C5369.26 1053.15 5342.83 1040.61 5319.22 1034.89C5224.94 1012.05 5205.01 994.14 5230.56 955.15C5241.46 938.502 5252.97 933.559 5280.83 933.559C5310.35 933.559 5320.66 938.575 5337.25 961.017C5359.15 990.644 5381.57 997.279 5381.57 974.142C5381.57 923.006 5302.35 882.186 5244.28 903.411ZM5564.62 1042.5C5564.62 1183.73 5565.38 1189.83 5582.92 1189.83C5599.35 1189.83 5601.22 1183.73 5601.22 1130.34V1070.85H5660.39C5725.9 1070.85 5738.51 1080.97 5738.51 1133.56C5738.51 1172.66 5747.12 1189.83 5766.72 1189.83C5780.23 1189.83 5782.98 1184.55 5779.85 1164.66C5777.67 1150.82 5773.49 1124.16 5770.56 1105.42C5767.63 1086.68 5758.66 1067.67 5750.64 1063.18C5737.71 1055.95 5738.28 1052.77 5755.58 1035.47C5782.58 1008.47 5782.74 943.307 5755.87 918.961C5740.49 905.022 5719.38 900.894 5650.62 898.35L5564.62 895.183V1042.5ZM1711.49 1047.97C1711.49 1183.73 1712.27 1189.83 1729.79 1189.83C1745.81 1189.83 1748.09 1183.73 1748.09 1141.08C1748.09 1101.97 1752.28 1088.41 1769.27 1072.44C1780.92 1061.49 1793.16 1052.54 1796.46 1052.54C1799.75 1052.54 1823.29 1083.43 1848.77 1121.19C1886.17 1176.61 1899.59 1189.83 1918.47 1189.83H1941.85L1910.35 1146.36C1893.02 1122.44 1865.78 1084.59 1849.8 1062.23L1820.75 1021.57L1877.98 963.836C1929.29 912.051 1932.88 906.102 1912.77 906.102C1897.06 906.102 1869.09 927.244 1819.23 976.823L1748.09 1047.54V976.823C1748.09 912.206 1746.51 906.102 1729.79 906.102C1712.27 906.102 1711.49 912.206 1711.49 1047.97ZM2902.32 923.373C2879.51 946.181 2878.14 965.246 2896.72 1000.87C2909.77 1025.89 2909.19 1028.06 2882.94 1052.59C2856.41 1077.36 2851.31 1091.73 2855.32 1130.34C2860.59 1180.98 2924.83 1202.74 2983.45 1173.73C3014.07 1158.58 3021.72 1157.68 3030.42 1168.16C3036.14 1175.04 3049.03 1180.68 3059.08 1180.68C3076.45 1180.68 3076.23 1179.2 3054.72 1150.93C3038.51 1129.63 3034.12 1115.99 3039.26 1102.88C3050.61 1073.93 3048.83 1052.54 3035.07 1052.54C3028.1 1052.54 3020.02 1061.65 3017.11 1072.78L3011.82 1093.01L2988.59 1071.18C2959.85 1044.19 2959.84 1040.59 2988.23 1012.19C3029.75 970.673 3012.94 918.851 2954.91 909.442C2928.64 905.177 2917.6 908.097 2902.32 923.373ZM4612.49 1040.15C4584.96 1113.88 4561.06 1177.72 4559.39 1182.01C4557.7 1186.32 4564.36 1189.83 4574.16 1189.83C4586.87 1189.83 4596.53 1177.92 4607.86 1148.25L4623.75 1106.66L4683.89 1109.35L4744.03 1112.03L4756.96 1150.93C4766.18 1178.66 4774.92 1189.83 4787.43 1189.83C4797.08 1189.83 4804.97 1187.88 4804.97 1185.49C4804.97 1183.1 4781.82 1119.26 4753.53 1043.63C4709.04 924.709 4699.4 906.102 4682.31 906.102C4665.24 906.102 4655.73 924.361 4612.49 1040.15ZM4969.71 1047.97C4969.71 1167.97 4971.83 1189.83 4983.44 1189.83C4995.06 1189.83 4997.17 1167.97 4997.17 1047.97C4997.17 927.967 4995.06 906.102 4983.44 906.102C4971.83 906.102 4969.71 927.967 4969.71 1047.97ZM2977.84 953.741C2985.55 966.042 2982.89 974.389 2965.28 993.124C2944.49 1015.26 2942.13 1015.8 2931.27 1000.94C2918.57 983.578 2915.71 949.64 2926.08 939.271C2936.82 928.535 2967.4 937.083 2977.84 953.741ZM4444.98 957.493C4459.04 978.947 4459.27 983.935 4447.18 1005.54C4435.18 1026.99 4427.37 1029.96 4376.79 1032.39L4319.9 1035.11V984.338V933.559H4374.6C4423.49 933.559 4430.97 936.104 4444.98 957.493ZM5735.46 957.493C5749.52 978.947 5749.75 983.935 5737.65 1005.54C5725.46 1027.34 5718.25 1029.92 5662.69 1032.37L5601.22 1035.07V984.319V933.559H5660.5C5714.33 933.559 5721.22 935.756 5735.46 957.493ZM4707.11 1009.2L4729.48 1070.85H4684.86C4660.31 1070.85 4640.23 1067.53 4640.23 1063.47C4640.23 1051.27 4678.63 941.458 4681.8 944.616C4683.41 946.227 4694.8 975.295 4707.11 1009.2ZM2018.09 989.481C1982.35 1010.04 1968.16 1037.24 1967.95 1085.63C1967.61 1164.53 2026.99 1209.22 2094.85 1181.11C2116.2 1172.26 2141.64 1139.46 2141.64 1120.76C2141.64 1107.31 2113.96 1120.17 2101.3 1139.49C2082.62 1168 2039.69 1170.24 2013.51 1144.07C1977.08 1107.63 1988.51 1098.31 2069.63 1098.31H2144.05L2138.96 1060.35C2136.16 1039.48 2126.11 1014.63 2116.62 1005.14C2095.25 983.779 2042.57 975.405 2018.09 989.481ZM2260.62 985.674C2253.07 988.374 2241.75 997.069 2235.46 1005C2225.12 1018.03 2224.02 1017.93 2224.02 1003.95C2224.02 995.44 2217.84 988.475 2210.29 988.475C2198.92 988.475 2196.56 1005.76 2196.56 1089.15C2196.56 1172.54 2198.92 1189.83 2210.29 1189.83C2221.34 1189.83 2224.02 1175.59 2224.02 1116.61C2224.02 1036.16 2239.44 1006.78 2281.68 1006.78C2317.7 1006.78 2324.69 1023.45 2324.69 1109.29C2324.69 1185.24 2325.8 1189.83 2344.08 1189.83C2362.77 1189.83 2363.34 1186.6 2359.63 1101.69C2356.19 1023.15 2353.48 1011.68 2334.64 996.437C2313.94 979.67 2287.98 975.899 2260.62 985.674ZM2446.44 989.774C2435.38 995.394 2422.21 1011.81 2417.18 1026.27C2409.41 1048.52 2410.41 1052.54 2423.64 1052.54C2432.24 1052.54 2444.41 1044.31 2450.7 1034.24C2470.89 1001.9 2540.4 1014.16 2533.72 1048.87C2531.37 1061.08 2516.84 1068.91 2482.26 1076.59C2422.99 1089.75 2407.06 1102.23 2407.06 1135.52C2407.06 1182.63 2459.46 1202.96 2511.24 1175.96C2535.13 1163.5 2538.68 1163.65 2548.81 1177.5C2561.86 1195.33 2590.11 1188.31 2590.11 1167.23C2590.11 1159.53 2586.43 1153.22 2581.93 1153.22C2577.42 1153.22 2572.25 1120.45 2570.43 1080.41C2568.62 1040.36 2562.36 1002.83 2556.54 997.005C2541.7 982.169 2470.6 977.501 2446.44 989.774ZM2699.94 985.674C2692.39 988.374 2681.06 997.069 2674.77 1005C2664.43 1018.03 2663.33 1017.93 2663.33 1003.95C2663.33 995.44 2657.15 988.475 2649.6 988.475C2638.23 988.475 2635.87 1005.76 2635.87 1089.15C2635.87 1172.54 2638.23 1189.83 2649.6 1189.83C2660.65 1189.83 2663.33 1175.59 2663.33 1116.61C2663.33 1036.16 2678.75 1006.78 2720.99 1006.78C2757.01 1006.78 2764 1023.45 2764 1109.29C2764 1185.24 2765.11 1189.83 2783.4 1189.83C2802.09 1189.83 2802.65 1186.6 2798.94 1101.69C2795.51 1023.15 2792.79 1011.68 2773.95 996.437C2753.25 979.67 2727.29 975.899 2699.94 985.674ZM3444.54 987.926C3391.75 1010.5 3375.95 1111.16 3417.6 1159.57C3436.39 1181.42 3446.61 1185.25 3485.99 1185.25C3521.03 1185.25 3537.04 1180.51 3551.78 1165.77C3589.37 1128.17 3590.08 1041.69 3553.1 1004.71C3533.03 984.64 3473.7 975.469 3444.54 987.926ZM2095.21 1030.9C2105.65 1044.16 2114.19 1058.57 2114.19 1062.93C2114.19 1067.29 2087.42 1070.85 2054.7 1070.85C2021.98 1070.85 1995.21 1067.29 1995.21 1062.93C1995.21 1044.08 2034.72 1006.78 2054.7 1006.78C2067.08 1006.78 2084.32 1017.04 2095.21 1030.9ZM3532.13 1030.9C3570.44 1079.6 3542.53 1162.37 3487.79 1162.37C3451.12 1162.37 3427.55 1131.93 3427.55 1084.58C3427.55 1012.18 3491.57 979.322 3532.13 1030.9ZM2965.66 1089.54C2993.92 1125.21 2994.39 1127.16 2978.73 1144.45C2948.07 1178.34 2882.98 1157.29 2882.98 1113.49C2882.98 1095.49 2915.81 1052.54 2929.57 1052.54C2933.3 1052.54 2949.54 1069.19 2965.66 1089.54ZM2520.51 1141.33C2481.46 1169.88 2414.48 1141.87 2446.12 1110.23C2454.16 1102.2 2476.46 1093.03 2495.68 1089.86C2527.81 1084.56 2530.87 1085.91 2533.69 1106.76C2535.58 1120.69 2530.49 1134.02 2520.51 1141.33ZM3642.63 1166.95C3642.63 1183.73 3647.5 1189.83 3660.93 1189.83C3674.36 1189.83 3679.24 1183.73 3679.24 1166.95C3679.24 1150.17 3674.36 1144.07 3660.93 1144.07C3647.5 1144.07 3642.63 1150.17 3642.63 1166.95ZM4173.46 1166.95C4173.46 1183.73 4178.34 1189.83 4191.77 1189.83C4205.19 1189.83 4210.07 1183.73 4210.07 1166.95C4210.07 1150.17 4205.19 1144.07 4191.77 1144.07C4178.34 1144.07 4173.46 1150.17 4173.46 1166.95ZM4484.64 1166.95C4484.64 1183.73 4489.52 1189.83 4502.95 1189.83C4516.37 1189.83 4521.25 1183.73 4521.25 1166.95C4521.25 1150.17 4516.37 1144.07 4502.95 1144.07C4489.52 1144.07 4484.64 1150.17 4484.64 1166.95ZM5079.54 1166.95C5079.54 1183.73 5084.42 1189.83 5097.85 1189.83C5111.27 1189.83 5116.15 1183.73 5116.15 1166.95C5116.15 1150.17 5111.27 1144.07 5097.85 1144.07C5084.42 1144.07 5079.54 1150.17 5079.54 1166.95ZM5463.94 1166.95C5463.94 1183.73 5468.82 1189.83 5482.24 1189.83C5495.67 1189.83 5500.55 1183.73 5500.55 1166.95C5500.55 1150.17 5495.67 1144.07 5482.24 1144.07C5468.82 1144.07 5463.94 1150.17 5463.94 1166.95Z" fill="#231F20"/>
</svg>
